<svg xmlns="http://www.w3.org/2000/svg" viewBox="0 0 104 36" style="enable-background:new 0 0 104 36" xml:space="preserve">
  <g transform="translate(0 .224)">
    <circle cx="17.9" cy="17.9" style="fill:#fff" r="17.3"/>
    <path d="M17.9 35.6C8.2 35.6.2 27.6.2 17.9S8.2.2 17.9.2c9.8 0 17.7 8 17.7 17.7 0 9.8-7.9 17.7-17.7 17.7zm0-34.8C8.5.8.8 8.4.8 17.9.8 27.3 8.4 35 17.9 35 27.3 35 35 27.3 35 17.9 35 8.5 27.4.8 17.9.8z" style="fill:#fff"/>
  </g>
  <path d="M8.9 8.924v12.3c0 5 4 9 9 9s9-4 9-9v-12.3h-18zm1.5 14.4 1.1-1.9 1.1 1.9h-2.2zm3.7 0-1.9-3.2.9-1.5 2.7 4.8-1.7-.1zm3.3 0-3.5-6 .9-1.5 4.3 7.5h-1.7zm3.2 0-5.2-8.9.9-1.5 5.9 10.3-1.6.1zm3.2 0-6.7-11.6.9-1.5 7.5 13.1h-1.7z"/>
  <path fill="#FFF" d="M43.8 17.724h1.5c2.4 0 2.7-1.4 2.7-5.1s-.3-5.1-2.7-5.1h-1.5v10.2zm2-12.7c4.1 0 5.3 2.2 5.3 7.7s-1.3 7.7-5.3 7.7h-5.3v-15.3l5.3-.1zm7.1 0h8.3v2.6h-5.1v3.3h4.7v2.7h-4.7v4h5.1v2.7h-8.3v-15.3zm17.2 9.3-1.6-6.4-1.5 6.4h3.1zm.6 2.7h-4.5l-.8 3.4h-3.2l4.4-15.4h4.1l4.3 15.5h-3.4l-.9-3.5zm5.3-12h3.2v6.7l4-6.7h3.3l-4.5 7.1 4.5 8.3h-3.7l-3.6-7.4v7.4H76v-15.4zm12 0h3.2v15.4H88v-15.4zm7.9 5.4v10.1h-2.8v-15.5H97l3.7 9.5v-9.5h2.8v15.4H100l-4.1-10zM45.482 28.855v-5.2c0-.1 0-.1.1-.1s.2-.1.3-.1.3 0 .4-.1c.1-.1.2 0 .3 0s.2 0 .3.1c.1.1.1.2.1.3v5.3c0 .6-.1 1.1-.2 1.4-.1.4-.4.7-.6 1-.4.2-.7.3-1.1.4-.4.1-.9.2-1.4.2h-.1c-.5 0-1-.1-1.3-.2-.4-.1-.7-.3-1-.5-.3-.3-.4-.5-.6-1-.1-.3-.2-.8-.2-1.4v-5.3c0-.1 0-.1.1-.1s.2-.1.3-.1.3 0 .4-.1h.3c.1 0 .2 0 .3.1.1.1.1.2.1.3v5.2c0 .4 0 .6.1.9s.1.4.1.5c.1.2.3.3.6.4.1.1.5.1.7.1h.1c.4 0 .6 0 .9-.1.3-.1.4-.2.5-.4.2-.2.3-.4.3-.6.2-.3.2-.5.2-.9zm8.1.5v-5.8c0-.1 0-.1.1-.1s.2-.1.3-.1h.7c.2 0 .3.1.3.4v8c0 .1 0 .2-.1.3h-1.1c-.1 0-.2 0-.3-.1-.1-.1-.2-.1-.2-.1l-3.7-5.8v5.7c0 .1 0 .2-.1.3h-.9c-.1 0-.1 0-.2-.1-.1 0-.1-.1-.1-.1v-8.1c0-.1 0-.1.1-.1s.2-.1.3-.1h.7c.1 0 .2 0 .2.1-.1.1-.1.1 0 .2l4 5.5zm4.3 2.3c0 .1 0 .2-.1.3-.1.1-.2.1-.3.1h-.7c-.1 0-.2 0-.3-.1v-8.2c0-.1 0-.1.1-.1s.2-.1.3-.1h.7c.1 0 .2 0 .3.1s.1.2.1.3v7.7zm4.4-2 1.7-6c.1-.1.3-.2.4-.2h.8c.1 0 .2 0 .2.1.1 0 .1.1.1.1v.2l-2.7 8c0 .1-.1.1-.1.2-.1 0-.2.1-.2.1h-.6c-.2 0-.3-.1-.4-.2l-2.7-8v-.2c0-.1.1-.1.1-.1.1 0 .1-.1.2-.1h1c.1 0 .2.1.3.1s.1.1.2.2l1.7 5.9c0 .1.1.2.1.3v.3-.3c-.1-.2-.1-.3-.1-.4zm4.3 1.9v-7.8c0-.1 0-.2.1-.3s.2-.1.3-.1h4.7c.1 0 .2 0 .2.1.1.1.1.2.1.3v.6c0 .1 0 .2-.1.3 0 .1-.1.1-.1.1h-3.7v2.3h3.2c.1 0 .2 0 .2.1v.8c0 .1 0 .2-.1.3h-3.3v2.4h3.7c.1 0 .2 0 .2.1s.1.2.1.3v.6c0 .1 0 .2-.1.3 0 .1-.1.1-.1.1h-4.7c-.1 0-.3 0-.4-.1-.1-.2-.2-.3-.2-.4zm6.8.2v-8c0-.1 0-.2.1-.2.1-.1.2-.1.3-.1h2.5c.5 0 1 0 1.4.1.4.1.7.2 1 .4.3.2.4.4.5.8.1.4.2.7.2 1.2v.3c0 .4 0 .7-.1 1s-.2.5-.3.7-.2.4-.5.5c-.2.1-.4.2-.7.3l1.6 2.8c.1.2.1.2.1.3s0 .1-.1.1l-.1.1h-1c-.2 0-.2-.1-.3-.1s-.2-.1-.2-.2l-1.7-2.9h-1.4v2.9c0 .1 0 .2-.1.3-.1.1-.2.1-.3.1h-.7c-.1 0-.2 0-.3-.1.1-.2.1-.3.1-.3zm3-7h-1.6v2.8h1.6c.4 0 .6 0 .8-.1.2 0 .4-.1.4-.2.1-.1.2-.3.2-.4 0-.2.1-.4.1-.6v-.2c0-.3 0-.4-.1-.6 0-.2-.1-.3-.2-.4-.1-.1-.3-.2-.4-.2-.2-.1-.4-.1-.8-.1zm4.5 5.8c.1 0 .2 0 .3.1.1 0 .3.1.4.1s.4.1.5.1h.6c.2 0 .4 0 .6-.1.2-.1.4-.1.5-.2.2-.1.3-.2.4-.4.1-.2.2-.3.2-.5 0-.3-.1-.5-.3-.7s-.4-.4-.7-.5c-.2-.2-.6-.3-.9-.5-.4-.2-.6-.4-.9-.6-.3-.3-.5-.5-.7-.8-.2-.4-.3-.7-.3-1.1 0-.4.1-.7.2-1 .2-.3.4-.4.5-.6.3-.2.5-.3.9-.4.4-.1.7-.1 1.1-.1h.9c.2 0 .4.1.6.1.2 0 .4.1.4.1.2.1.3.1.3.2v.3c0 .2-.1.4-.1.5-.1.2-.2.2-.3.2-.2 0-.4-.1-.7-.1-.3 0-.5-.1-.9-.1-.5 0-.9.1-1.1.2-.3.2-.4.4-.4.7 0 .3.1.4.3.7.2.1.4.3.7.5.2.2.6.4.9.5.4.2.6.4.9.6.3.3.5.5.7.9.2.4.3.7.3 1.2 0 .4-.1.8-.3 1.1-.2.3-.4.5-.7.7-.3.2-.6.3-1 .4s-.7.1-1.1.1h-.5c-.2 0-.4 0-.6-.1-.2 0-.4-.1-.5-.1s-.5-.1-.6-.1-.2-.1-.2-.2v-.3c0-.3.1-.4.1-.6.3-.1.4-.2.5-.2zm7.9 1.1c0 .1 0 .2-.1.3-.1.1-.2.1-.3.1h-.7c-.1 0-.2 0-.3-.1-.1 0-.1-.1-.1-.1v-8.1c0-.1 0-.1.1-.1s.2-.1.3-.1h.7c.1 0 .2 0 .3.1s.1.2.1.3v7.7zm5-6.9v6.9c0 .1 0 .2-.1.3-.1.1-.2.1-.3.1h-.7c-.1 0-.2 0-.3-.1-.1 0-.1-.1-.1-.1v-7h-2.1c-.1 0-.2 0-.2-.1-.1-.1-.1-.2-.1-.3v-.6c0-.1 0-.2.1-.3 0-.1.1-.1.1-.1h5.8c.1 0 .2 0 .2.1.1.1.1.2.1.3v.6c0 .1 0 .2-.1.3 0 .1-.1.1-.1.1l-2.2-.1zm7.3 4v2.9c0 .1 0 .2-.1.3-.1.1-.2.1-.3.1h-.7c-.1 0-.2 0-.3-.1-.1 0-.1-.1-.1-.1v-3l-2.5-5c-.1-.2-.1-.3 0-.4s.2-.1.4-.1h.8c.1 0 .2 0 .3.1.1 0 .1.1.2.1l1.7 3.8 1.8-3.8c0-.1.1-.1.2-.1s.2-.1.3-.1h.8c.2 0 .3 0 .4.1s.1.2 0 .4l-2.9 4.9z"/>
</svg>
